<?xml version="1.0" ?><svg height="32" id="svg4063" version="1.1" viewBox="0 0 32 32.000001" width="32" xmlns="http://www.w3.org/2000/svg" xmlns:cc="http://creativecommons.org/ns#" xmlns:dc="http://purl.org/dc/elements/1.1/" xmlns:inkscape="http://www.inkscape.org/namespaces/inkscape" xmlns:rdf="http://www.w3.org/1999/02/22-rdf-syntax-ns#" xmlns:sodipodi="http://sodipodi.sourceforge.net/DTD/sodipodi-0.dtd" xmlns:svg="http://www.w3.org/2000/svg"><defs id="defs4065"/><g id="layer1" transform="translate(0,-1020.3621)"><g id="g7966" transform="translate(-766.49658,-562.0323)"><g id="g8536"><path d="m 775.49658,1587.3944 0,4 -6,0 0,17 25,0 0,-17 -6,0 0,-4 -13,0 z" id="path5506" style="fill:#53c4f7;fill-opacity:1;stroke:none;stroke-width:1;stroke-linecap:round;stroke-linejoin:round"/><path d="m 792.49658,1594.3944 a 1,1 0 0 1 -1,1 1,1 0 0 1 -1,-1 1,1 0 0 1 1,-1 1,1 0 0 1 1,1 z" id="circle5508" style="fill:#e6e7e8;fill-opacity:1;stroke:none;stroke-width:1;stroke-linecap:round;stroke-linejoin:round"/><path d="m 782.49658,1592.3944 a 7,7 0 0 0 -7,7 7,7 0 0 0 7,7 7,7 0 0 0 7,-7 7,7 0 0 0 -7,-7 z" id="path5512" style="fill:#f9f9f9;fill-opacity:1;stroke:none;stroke-width:1;stroke-linecap:round;stroke-linejoin:round"/><path d="m 787.49658,1599.3944 a 5,4.9999828 0 0 1 -5,5 5,4.9999828 0 0 1 -5,-5 5,4.9999828 0 0 1 5,-5 5,4.9999828 0 0 1 5,5 z" id="ellipse5516" style="fill:#4788f4;fill-opacity:1;stroke:none;stroke-width:1;stroke-linecap:round;stroke-linejoin:round"/></g></g></g></svg>